<?xml version="1.0"?>
<!DOCTYPE svg PUBLIC "-//W3C//DTD SVG 1.1//EN" "http://www.w3.org/Graphics/SVG/1.1/DTD/svg11.dtd">
<svg version="1.1" xmlns="http://www.w3.org/2000/svg" xmlns:xlink="http://www.w3.org/1999/xlink" width="800px"
    height="800px" viewBox="0 0 4 4" preserveAspectRatio="xMidYMid">
    <defs>
        <g id="polygon" fill="none" stroke-width="0.02" stroke="black">
            <polygon
                points="2.000  1.000
                        1.623  1.782
                        0.777  1.975
                        0.099  1.434
                        0.099  0.566
                        0.777  0.025
                        1.623  0.218" 
            />
            <line x1="2.000" y1="1.000" x2="1" y2="1" />
            <line x1="1.623" y1="1.782" x2="1" y2="1" />
            <line x1="0.777" y1="1.975" x2="1" y2="1" />
            <line x1="0.099" y1="1.434" x2="1" y2="1" />
            <line x1="0.099" y1="0.566" x2="1" y2="1" />
            <line x1="0.777" y1="0.025" x2="1" y2="1" />
            <line x1="1.623" y1="0.218" x2="1" y2="1" />

            <animateTransform attributeName="transform" type="rotate" from="0 1 1" to="360 1 1" dur="2s" repeatCount="indefinite" />
        </g>

        <g id="baseTriangle">
            <polygon points="2.25,3 2.5,0.55 2.75,3" />
        </g>
        
        <g id="swing" stroke-width="0.25" stroke="red">
            <line x1="0.90" y1="0.95" x2="5.60" y2="1.95" />
        </g>
    </defs>

    <use xlink:href="#polygon" transform="scale(0.35,0.35) translate(4,3.5)" />
    <use xlink:href="#polygon" transform="scale(0.35,0.35) translate(8.5,4.4)" />
    <use xlink:href="#swing" transform="scale(0.35,0.35) translate(4,3.5)" />
    <use xlink:href="#baseTriangle" fill="blue" transform="scale(0.35,0.35) translate(4.8,4.4)" />

    <use xlink:href="#polygon" transform="scale(0.3,0.3) translate(0.5,0.5)" />
    <use xlink:href="#polygon" transform="scale(0.3,0.3) translate(5,1.4)" />
    <use xlink:href="#swing" transform="scale(0.3,0.3) translate(0.5,0.5)" />
    <use xlink:href="#baseTriangle" fill="purple" transform="scale(0.3,0.3) translate(1.3,1.4)" />

    <use xlink:href="#polygon" transform="scale(0.2,0.2) translate(12.5,0.5)" />
    <use xlink:href="#polygon" transform="scale(0.2,0.2) translate(17,1.4)" />
    <use xlink:href="#swing" transform="scale(0.2,0.2) translate(12.5,0.5)" />
    <use xlink:href="#baseTriangle" fill="green" transform="scale(0.2,0.2) translate(13.3,1.4)" />
</svg>